<svg width="375" height="462" viewBox="0 0 375 462" fill="none" xmlns="http://www.w3.org/2000/svg">
<g filter="url(#filter0_d_2873_220)">
<path d="M125.997 254.31L122.044 264.454L129.48 281.623L144.151 290.046C144.151 290.046 153.678 284.083 154.571 283.19C155.465 282.296 148.708 268.36 148.216 267.279C147.723 266.197 133.647 254.497 132.572 254.31C131.498 254.122 125.997 254.31 125.997 254.31Z" fill="white"/>
<path d="M221.107 95.8082C218.695 96.2251 216.217 95.4056 213.915 96.1138C213.207 96.7667 213.348 97.4407 213.54 98.3935C221.097 100.773 228.714 103.205 236.524 104.982C250.509 108.165 264.718 108.415 278.926 107.747C286.442 107.393 293.866 105.845 301.204 104.029C303.543 103.45 305.883 102.498 308.397 102.986C308.486 104.562 307.186 105.17 306.242 105.966C290.818 118.972 273.445 127.901 253.401 131.205C252.246 131.396 251.098 131.608 249.954 131.872C238.494 132.535 227.161 132.182 216.333 127.736C215.263 127.338 214.243 126.657 212.933 127.138C211.811 128.384 212.18 129.975 212.213 131.432C212.373 138.573 211.966 145.682 210.692 152.7C208.692 163.714 203.674 173.157 195.449 180.824C188.486 186.387 180.82 190.436 171.86 191.563C159.71 193.09 149.153 190.181 141.182 180.274C140.995 179.843 140.574 180.441 140.954 180.167C141.069 180.084 141.11 180.195 141.246 180.368C141.978 181.298 141.846 182.372 141.689 183.394C140.61 190.409 138.28 196.988 134.709 203.122C134.233 203.941 133.596 204.624 132.748 205.081C130.225 206.129 129.506 204.598 129.486 202.573C129.453 199.169 129.204 195.796 128.714 192.433C128.564 191.402 128.731 190.3 127.891 189.45C126.993 189.18 127.038 189.98 126.872 190.432C126.187 192.287 124.633 192.333 123.093 192.199C121.416 192.054 120.827 190.752 120.459 189.313C119.968 187.39 120.671 185.313 119.567 183.095C115.811 182.49 111.868 182.685 107.935 182.983C106.489 183.093 105.765 184.246 105.243 185.483C104.683 186.809 103.76 187.558 102.26 187.431C100.764 187.306 100.034 186.299 99.5099 185.047C98.8302 183.423 98.7722 181.635 98.2798 179.743C94.8207 180.793 91.4567 179.616 88.0917 180.046C82.8446 180.155 77.6051 180.094 72.3665 180.091C70.7401 180.09 69.0804 180.155 67.7164 178.999C67.377 178.877 67.2031 178.632 67.1831 178.274C68.4055 177.069 69.9749 177.314 71.454 177.306C78.0538 177.272 84.6535 177.302 91.2542 177.285C92.6344 177.282 94.0422 177.455 95.3445 176.818C96.2856 176.313 97.1943 175.783 97.2741 174.514C96.5089 172.661 94.8312 172.945 93.373 172.92C88.8046 172.84 84.2324 172.967 79.665 172.861C76.0224 172.777 75.4216 172.113 75.2619 168.484C74.9952 162.438 77.6475 158.172 83.2191 155.688C85.145 154.828 87.0651 153.936 88.8464 152.802C90.1478 151.974 91.393 151.025 90.8835 149.109C89.4472 147.458 87.894 148.263 86.452 149.011C84.3721 150.09 82.3417 151.264 80.242 152.308C73.377 155.723 69.9806 154.941 65.0947 148.801C73.7639 141.79 83.4121 136.208 92.5517 129.887C100.219 124.583 107.309 118.53 112.779 110.875C115.362 107.26 116.827 103.006 118.459 98.8809C121.779 90.4873 127.183 83.5643 134.69 78.7716C141.638 74.3369 149.392 71.3861 157.581 69.8041C159.593 69.4157 161.749 69.2539 163.36 67.6909C163.721 67.4177 164.008 67.4806 164.221 67.8804C163.277 70.8112 160.983 73.2632 161.095 76.8365C163.504 76.2654 165.868 75.9513 167.634 74.0799C171.105 73.6125 174.366 74.7091 177.575 75.6752C188.377 78.9297 197.925 84.3953 205.891 92.4748C206.986 93.5856 208.043 94.6308 209.746 94.5584C212.426 94.7716 215.057 93.8959 217.729 94.2053C219.009 94.3538 220.629 93.9149 221.108 95.8082H221.107Z" fill="#93D2D5"/>
<path d="M209.173 95.1401C208.665 95.3885 208.155 95.6369 207.722 95.8492C197.536 84.2916 184.832 77.5143 169.868 74.8186C169.083 74.6777 168.198 74.871 167.633 74.079C172.023 66.2099 177.625 59.2308 183.493 52.4497C189.855 45.0974 197.473 39.1539 205.085 33.2067C207.645 32.3776 210.038 32.7983 212.479 33.8701C219.521 36.9627 225.627 41.3908 231.198 46.6233C235.406 50.3222 237.948 55.5461 242.49 58.9785C239.781 53.9584 237.364 48.785 233.71 44.3559C227.914 38.7142 221.51 34.0091 213.814 31.2525C212.864 30.9127 211.766 30.5271 212.015 29.1022C215.733 27.1785 219.151 24.6722 223.169 23.3301C225.445 23.3215 227.18 21.2026 229.581 21.6805C235.722 26.0619 241.582 30.8099 247.772 36.0299C247.855 34.5497 247.185 34.0567 246.659 33.6131C241.698 29.4287 237.358 24.3524 230.799 22.4401C230.325 22.302 230.038 21.9365 230.06 21.3949C237.229 18.564 244.328 15.4924 252.183 15.0964C256.672 19.8595 260.88 24.893 265.375 30.0065C266.421 28.0056 265.238 27.0604 264.644 26.0515C262.922 23.1245 260.47 20.7486 258.401 18.0795C257.471 16.8802 256.138 16.587 254.723 16.3272C253.901 16.1758 252.309 16.4633 252.972 14.6252C260.106 13.0099 267.388 12.9632 274.629 12.5063C274.852 12.5796 275.075 12.6539 275.297 12.7272C278.815 16.5832 282.406 20.3993 282.49 26.1086C280.791 28.7386 278.104 29.443 275.249 29.7961C273.523 30.0093 271.751 30.0645 270.423 31.2487C270.139 33.102 271.23 34.3146 271.838 35.6749C272.851 37.9413 274.26 40.3124 272 42.4731C269.802 44.5739 267.926 42.2437 265.826 41.4518C263.724 42.2409 261.883 43.7724 259.634 44.4492C258.533 44.7804 257.898 45.6543 258.119 46.8984C258.355 48.2291 259.17 48.9991 260.533 48.9868C262.137 48.9715 263.848 48.5413 265.046 50.86C261.124 53.1255 257.398 55.5337 252.338 55.6308C250.844 58.9747 246.146 59.1946 244.55 62.8717C242.924 64.5784 240.854 65.6997 238.965 67.0504C231.797 72.1762 225.399 78.2063 218.847 84.0574C218.461 85.6994 217.558 87.0216 216.278 88.0762C213.689 90.2103 211.995 93.243 209.172 95.1391L209.173 95.1401Z" fill="#001950"/>
<path d="M194.849 180.268C202.354 172.868 207.548 164.11 209.586 153.737C211.097 146.05 211.372 138.213 211.139 130.371C211.094 128.875 210.841 127.345 211.444 125.692C213.229 125.014 214.705 125.983 216.22 126.737C219.204 129.385 221.006 133.22 224.685 135.175C243.532 148.456 263.72 149.366 284.756 141.554C290.031 139.595 294.484 136.021 299.27 133.116C300.516 132.956 301.561 131.95 302.873 132.169C305.583 135.046 305.395 135.697 300.669 139.465C300.945 141.828 300.216 144.048 298.465 145.894C291.56 151.277 283.503 153.974 275.108 155.797C260.955 158.869 247.21 157.833 234.047 151.426C233.422 151.121 232.757 150.886 232.094 150.674C231.906 150.614 231.655 150.748 231.406 150.799C230.715 151.452 231.008 152.316 231.016 153.09C231.236 176.087 231.471 199.085 231.725 222.082C231.737 223.166 231.248 224.529 232.884 225C231.167 227.769 227.955 228.283 225.427 229.753C218.961 233.518 211.86 236.057 205.328 239.739C204.125 240.417 202.569 241.516 201.416 239.448C200.665 234.788 200.95 230.089 200.976 225.414C201.037 214.859 200.971 204.305 201.018 193.751C201.022 192.807 200.93 191.877 200.647 190.981C200.22 190.058 200.176 189.178 201.003 188.42C197.13 189.033 194.872 186.526 192.642 184.634C192.432 182.258 194.383 181.707 194.851 180.268L194.849 180.268Z" fill="#027A96"/>
<path d="M248.44 251.736C251.697 255.245 254.017 259.42 256.587 263.404C263.21 273.666 269.818 283.939 276.032 294.46C275.202 298.124 272.239 298.144 269.388 298.362C255.735 298.367 242.085 298.356 228.443 298.369C226.257 298.284 225.953 296.405 225.523 294.946C224.348 290.958 221.723 288.118 218.83 285.33C216.838 283.41 214.511 282.074 211.98 282.459C207.212 283.185 203.217 280.655 198.8 280.058C197.838 278.344 199.472 278.043 200.322 277.585C212.171 271.202 223.791 264.404 235.665 258.07C238.764 256.415 241.79 254.639 244.845 252.909C245.98 252.267 247.079 251.628 248.441 251.737L248.44 251.736Z" fill="#004C80"/>
<path d="M194.85 180.268C195.971 182.271 193.162 182.261 193.139 183.729C193.547 186.726 197.835 185.094 198.114 187.875C199.757 188.561 200.339 186.91 201.473 186.874C202.195 187.12 202.682 187.583 203.139 188.435C202.599 189.295 200.639 188.348 200.67 190.013C198.811 193.115 195.776 194.91 192.774 196.51C188.064 199.017 183.03 200.856 178.008 202.678C175.868 202.695 173.903 203.508 171.876 204.035C165.168 205.778 158.485 205.736 151.803 203.846C150.361 203.437 148.948 202.751 146.898 203.093C145.221 207.388 144.605 212.317 142.366 216.646C140.623 221.922 137.218 226.183 133.914 230.505C133.438 231.168 133.156 231.992 132.379 232.413C131.4 231.799 130.933 232.638 130.332 233.126C128.645 234.498 127.001 235.941 124.777 236.747C124.169 233.97 125.57 231.579 125.531 229.056C126.049 227.97 125.607 226.809 126.173 224.996C125.517 226.169 125.125 226.523 124.695 226.841C115.912 240.445 103.381 248.487 87.687 251.798C86.4455 252.06 85.0615 252.905 83.918 251.489C84.9313 249.989 86.3438 248.965 87.9512 248.219C101.255 242.042 110.953 232.032 118.186 219.484C121.056 214.506 123.275 209.227 123.867 203.405C123.947 202.495 124.227 201.648 124.648 200.845C126.157 197.418 125.196 193.407 127.373 189.338C130.839 194.663 129.527 200.351 130.205 205.398C131.674 205.833 131.99 204.871 132.573 204.373C135.92 200.063 137.948 195.079 139.324 189.899C140.214 186.552 141.34 183.157 140.814 179.563C142.231 179.421 142.458 180.522 143.037 181.145C148.88 187.448 156.032 190.728 164.672 190.933C175.755 191.196 185.485 187.847 193.866 180.567C194.102 180.361 194.518 180.363 194.851 180.268H194.85Z" fill="#007593"/>
<path d="M299.722 133.85C296.087 136.123 292.556 138.54 288.795 140.638C283.093 143.821 276.967 145.443 270.646 146.58C265.791 147.453 260.858 147.621 255.985 147.238C244.211 146.312 233.046 143.489 223.845 135.43C222.137 133.914 221.606 131.977 221.784 129.413C225.269 129.602 228.538 130.788 231.922 131.081C238.145 131.62 244.368 131.81 250.585 130.993C257.808 129.63 264.982 128.032 271.858 125.398C283.852 120.802 294.753 114.285 304.708 106.174C305.967 105.148 307.169 104.051 308.397 102.987C310.564 102.072 312.519 100.689 314.81 100.048C316.961 99.6347 316.753 101.269 316.619 102.408C315.131 115.109 310.569 126.182 299.722 133.852V133.85Z" fill="#001748"/>
<path d="M132.574 204.372C132.321 204.889 132.134 205.454 131.8 205.911C131.393 206.465 130.862 206.927 129.725 208.122C129.736 201.715 130 195.953 127.44 190.531C126.552 194.122 127.091 197.992 125.421 201.401C124.476 199.99 123.538 198.553 121.75 200.421C121.326 202.956 123.904 202.482 124.808 203.636C123.789 211.223 120.456 217.877 116.375 224.183C110.314 233.549 102.469 241.085 92.8514 246.773C89.9446 248.492 86.6385 249.43 83.9189 251.488C86.4636 246.669 88.9351 241.821 91.0197 236.772C92.5367 233.097 94.0016 229.477 93.205 225.385C95.282 221.289 96.0861 216.82 96.9635 212.378C98.147 206.392 99.4283 200.469 104.243 196.112C104.642 195.751 104.486 195.273 104.064 194.93C102.712 194.467 101.441 194.626 100.038 194.908C96.8038 195.56 93.4788 196.165 90.3989 194.198C89.3457 192.739 91.4369 192.017 91.1546 190.471C88.7383 189.063 87.5064 187.036 89.0263 183.991C89.8381 182.365 87.668 180.707 88.8533 178.982C91.1622 179.095 93.5301 178.546 95.4094 179.643C97.0044 179.462 97.4074 177.969 99.1023 177.695C100.185 180.418 99.0234 183.83 101.273 186.462C101.93 186.916 102.838 186.759 103.718 186.552C104.167 186.229 104.26 185.79 104.321 185.315C104.619 182.97 105.981 181.809 108.321 181.803C112.404 181.794 116.488 181.8 120.613 181.8C122.185 184.905 119.999 188.521 122.21 191.306C123.534 192.155 124.644 190.483 125.82 191.277C126.556 189.881 125.501 188.229 127.036 187.071C130.749 188.772 129.136 192.494 129.987 195.234C130.933 198.281 129.971 201.506 130.5 204.516C131.342 205.158 131.92 204.44 132.574 204.371L132.574 204.372Z" fill="#90D1D4"/>
<path d="M133.079 230.337C134.906 227.232 137.289 224.512 139.27 221.504C140.238 220.032 139.817 217.997 141.486 216.99C142.246 216.659 141.728 215.197 143.049 215.361C144.303 216.467 144.554 220.11 143.801 226.289C145.772 228.095 149.592 228.843 147.947 233.3C151.79 230.295 154.02 226.466 157.352 223.737C158.152 223.083 159.437 221.105 160.247 223.88C154.623 231.189 148.574 238.091 141.305 243.84C139.956 244.907 138.402 245.792 137.338 247.768C143.158 252.714 150.527 255.553 155.937 261.048C156.119 261.352 156.252 261.672 156.352 262.01C156.789 263.91 156.332 265.909 157.009 267.78C157.378 270.653 157.968 273.48 158.859 276.605C159.845 272.186 161.179 268.177 161.1 263.906C161.022 259.633 164.39 258.373 167.333 256.731C167.822 256.547 168.328 256.465 168.847 256.475C169.548 256.565 170.216 256.714 170.487 257.502C170.373 259.477 168.27 259.702 167.252 261.218C167.792 263.158 166.835 265.055 166.102 267.308C168.501 269.615 170.093 272.331 168.232 275.812C167.69 278.225 166.92 280.564 166.022 282.865C163.687 287.629 162.921 292.804 162.471 297.994C159.323 298.693 156.548 298.202 153.467 298.377C151.504 291.56 152.261 284.39 149.936 277.37C148.077 281.057 146.744 284.523 145.357 287.964C144.919 289.051 144.514 290.151 143.883 291.14C142.144 293.865 140.925 293.954 138.466 291.573C138.748 288.37 137.422 286.133 134.836 284.171C132.591 282.467 130.084 280.518 130.842 276.97C132.799 276.435 133.231 278.374 134.346 279.181C135.983 280.366 136.883 282.579 139.655 282.787C141.938 278.208 143.494 273.262 145.248 268.4C145.588 267.457 145.029 266.862 144.325 266.362C141.409 265.364 139.18 263.247 136.669 261.597C133.072 259.234 129.555 256.748 125.998 254.311C125.624 250.941 127.355 248.135 127.703 245.231C129.036 244.186 130.431 244.917 131.615 244.442C133.678 239.905 133.129 235.095 133.08 230.339L133.079 230.337Z" fill="#011647"/>
<path d="M167.618 275.433C169.611 271.722 167.183 269.406 164.872 267.624C165.187 265.701 166.164 264.785 166.822 263.607C166.494 262.774 166.154 261.915 165.835 261.104C166.41 258.899 169.323 259.688 170.028 257.688C169.876 257.116 169.369 257.2 168.943 257.128C168.893 255.773 170.006 255.388 170.9 254.939C180.404 250.165 189.886 245.346 199.422 240.637C200.247 240.23 201.103 239.762 202.087 240.193C208.659 237.009 215.242 233.853 221.797 230.635C225.518 228.808 229.189 226.88 232.883 224.998C234.295 224.501 235.434 223.35 237.27 223.221C238.488 226.438 238.602 230.028 240.01 233.229C239.396 234.835 237.863 235.297 236.525 235.941C230.644 238.773 225.04 242.123 219.248 245.117C204.119 252.244 189.368 260.107 174.288 268.026C175.861 273.344 177.324 278.343 179.913 282.936C181.703 283.647 182.663 282.083 183.923 281.426C186.019 280.33 185.991 280.275 188.264 281.479C188.49 283.327 187.044 284.064 185.883 284.973C184.786 285.832 183.495 286.562 184.097 288.326C184.075 288.683 183.955 289 183.743 289.286C182.412 290.605 180.721 291.34 179.102 292.2C176.629 293.513 174.702 293.135 173.429 290.498C172.165 287.512 171.156 284.426 169.966 281.411C169.394 279.338 169.238 277.1 167.621 275.435L167.618 275.433Z" fill="#01164F"/>
<path d="M183.899 44.0446C182.18 46.6794 179.851 48.7411 177.541 50.8209C176.666 51.2236 176.748 50.2698 176.143 49.8377C172.905 52.4753 170.746 56.0343 168.569 59.5591C167.911 60.6233 167.774 62.0292 166.437 62.626C157.306 63.5455 148.186 64.4803 139.474 67.6557C137.974 68.203 136.328 69.0055 134.981 66.5953C137.722 61.7979 139.308 56.0734 144.037 52.2373C149.406 49.4341 155.183 48.8506 161.108 49.0952C163.074 49.3865 164.328 48.4099 165.476 46.9011C167.509 44.2283 169.574 41.5355 172.344 39.567C175.252 37.5014 176.155 34.1689 177.82 31.3076C182.776 30.8583 187.08 32.4346 190.892 35.5349C191.465 37.3387 189.8 37.9022 188.961 38.8655C187.376 40.6854 185.497 42.2313 183.898 44.0465L183.899 44.0446Z" fill="#011851"/>
<path d="M115.1 287.47C116.835 282.415 117.541 277.055 119.632 272.104C122.297 274.005 124.56 276.291 126.315 279.073C130.674 284.523 135.641 289.314 141.319 293.688C145.88 289.006 146.05 282.332 150.416 277.943C151.6 284.821 153.854 291.451 152.141 298.43C143.274 298.865 134.401 298.534 125.531 298.614C121.564 298.65 117.596 298.556 113.628 298.521C113.538 294.76 114.694 291.165 115.1 287.47Z" fill="#018CA3"/>
<path d="M206.929 3.35602C207.095 2.97718 207.35 2.82964 207.743 3.04381C211.7 2.67448 215.813 3.74248 219.595 1.66169C220.514 1.15625 232.774 1.13055 233.709 1.42563C234.391 2.94196 232.049 2.51171 232.237 3.77389C233.566 5.67382 236.507 6.31538 236.725 9.19669C236.291 10.5617 235.596 11.7363 234.339 12.5054C226.713 14.2787 219.944 18.0786 213.034 21.5443C212.463 21.6633 211.859 21.4711 211.3 21.689C208.206 22.8922 205.655 22.1961 203.647 19.6006C203.359 19.2275 203.078 18.862 202.38 18.5288C200.805 18.7297 198.889 19.1904 197.401 17.5684C197.169 17.3409 197.002 17.0715 196.891 16.7688C196.212 14.412 193.946 14.4215 192.215 13.6438C190.776 12.9975 188.919 13.344 187.853 11.802C189.862 9.03202 193.219 8.94826 196.008 7.77936C199.282 6.40772 202.615 5.16077 205.966 3.98235C210.177 5.59101 214.15 7.71654 218.254 9.60695C215.936 7.38433 213.314 5.74331 210.087 5.16933C208.966 4.97039 207.712 5.22454 206.795 4.2641C206.643 3.93095 206.697 3.63016 206.93 3.35507L206.929 3.35602Z" fill="#011855"/>
<path d="M183.708 288.151C183.385 288.061 183.062 287.973 182.635 287.855C182.63 284.331 187.172 284.576 187.878 281.68C186.593 280.712 185.665 281.226 184.667 281.954C183.554 282.768 182.341 283.443 181.17 284.179C180.464 284.624 179.879 284.61 179.509 283.75C179.649 281.735 181.414 281.225 182.737 280.399C196.718 271.682 211.402 264.222 225.817 256.282C229.498 254.254 233.208 252.279 236.813 250.116C239.866 249.131 241.987 245.853 245.697 246.486C246.611 248.236 247.523 249.985 248.437 251.736C237.113 258.406 225.535 264.619 214.014 270.938C208.821 273.786 203.707 276.778 198.558 279.705C194.209 283.582 189.056 286.04 183.706 288.151H183.708Z" fill="#021343"/>
<path d="M65.0929 148.8C66.4274 148.465 66.8875 149.593 67.6071 150.299C71.7696 154.384 73.6945 154.688 78.7629 152.025C80.9378 150.882 83.0785 149.676 85.2571 148.541C86.2923 148.002 87.3617 147.52 88.4472 147.093C89.952 146.503 91.3388 146.935 92.1582 148.216C93.0983 149.687 92.6592 151.188 91.3417 152.296C89.6221 153.742 87.5128 154.531 85.548 155.563C82.5613 157.131 79.26 158.088 76.5918 160.013C75.7791 161.997 76.1641 163.894 76.0994 165.746C76.0348 167.611 76.0852 169.479 76.0852 171.147C77.0044 172.188 78.0034 171.884 78.8988 171.885C84.164 171.892 89.4301 171.87 94.6953 171.827C96.2694 171.814 97.8892 171.837 98.5916 173.518C99.4186 175.497 97.9377 176.498 96.5593 177.452C95.5384 178.314 94.3217 177.887 93.2038 177.893C85.6402 177.935 78.0756 177.934 70.512 177.895C69.3884 177.889 68.1784 178.288 67.1394 177.48C66.6195 176.567 66.0995 175.655 65.5795 174.742C65.1746 173.859 65.2012 172.961 65.4607 172.108C66.2098 171.061 67.6318 171.173 68.5272 170.028C69.3932 165.436 69.4673 160.846 65.7516 157.01C64.5168 154.355 63.1927 151.707 65.0929 148.8Z" fill="#031449"/>
<path d="M83.9004 91.638C93.061 93.6826 102.301 94.7011 111.593 93.5769C111.775 94.01 111.979 94.2585 111.921 94.3965C108.648 102.147 105.29 109.848 98.8195 115.619C96.6427 115.944 94.6504 115.198 92.7511 114.354C86.14 111.417 80.872 106.691 76.0469 101.422C75.3406 100.651 74.7085 99.7489 75.4157 98.6066C77.6505 98.3982 78.5193 100.346 79.8891 101.485C80.9413 102.36 81.7408 103.533 83.2008 104.42C84.5098 100.22 83.7541 94.4022 91.2835 95.2418C87.3149 94.5802 83.7341 94.7801 80.8358 92.1206C81.9936 90.9307 82.9413 91.2306 83.9004 91.638Z" fill="#037192"/>
<path d="M244.551 62.8736C244.496 61.304 245.977 59.4003 247.952 58.4275C249.59 57.6212 251.645 57.1263 250.862 54.64C252.546 53.9023 253.844 54.6143 255.298 55.0226C258.266 53.6576 261.303 52.2612 264.544 50.7706C263.546 49.8092 262.84 49.2286 261.65 49.8016C260.67 50.2737 259.606 50.1995 258.48 49.7683C257.1 48.2396 256.424 46.5177 257.409 44.2836C260.216 43.0662 263.552 42.6959 265.514 39.648C267.359 40.7446 268.459 42.9995 271.359 42.4675C274.818 38.0041 268.831 34.9877 269.064 30.5253C273.016 28.1837 278.568 29.6629 282.284 26.1172C282.441 26.2162 282.598 26.3161 282.756 26.4132C285.402 30.6586 285.746 35.5512 286.592 40.2934C286.835 41.6555 286.962 43.0357 287.401 44.355C287.224 46.1084 285.817 45.621 284.75 45.8675C281.358 46.6509 277.689 46.5024 274.734 48.7888C269.902 50.703 264.863 52.0337 260.136 54.2783C254.758 56.8321 249.55 59.6525 244.551 62.8736Z" fill="#001849"/>
<path d="M299.722 133.85C304.537 128.897 309.025 123.71 311.995 117.369C314.354 112.331 314.891 106.854 315.959 101.501C316.139 100.597 315.524 100.269 314.809 100.046C319.808 98.2878 322.058 99.2911 323.405 104.196C324.733 109.033 323.688 113.725 321.836 118.216C317.958 127.623 312.638 135.941 303.942 141.726C302.048 142.987 300.409 144.656 298.463 145.892C298.34 145.717 298.097 145.401 298.112 145.387C300.312 143.504 300.124 141.206 299.074 138.759C300.839 137.693 303.055 137.534 303.983 135.275C304.154 134.342 303.589 133.506 302.86 132.711C301.632 132.623 301.029 134.235 299.72 133.85H299.722Z" fill="#037596"/>
<path d="M75.3748 98.7123C77.1305 102.269 80.313 104.513 83.1191 107.089C87.6361 111.233 92.9954 113.865 98.8195 115.618C95.6674 118.74 92.1114 121.325 88.1913 123.814C81.4119 119.636 75.9423 114.142 71.3996 107.731C67.3863 102.067 64.6382 95.8205 63.489 88.8966C63.1306 86.7349 63.6563 85.012 64.9329 83.4814C67.1544 82.4486 68.199 83.8136 69.1734 85.3337C70.3587 90.2035 73.1524 94.3251 75.3748 98.7123Z" fill="#02154B"/>
<path d="M105.162 194.576C105.486 194.662 105.81 194.748 106.115 194.828C106.153 195.098 106.284 195.449 106.2 195.51C99.642 200.334 98.8179 207.801 97.335 214.926C96.5603 218.651 95.4681 222.258 94.2666 225.92C93.8017 225.687 93.5023 225.537 93.2029 225.387C92.3056 221.54 91.7837 217.57 89.547 213.913C87.4729 217.237 86.0822 220.82 82.6535 223.398C82.4064 219.961 83.8997 217.194 83.9957 214.239C84.6763 208.813 84.1022 203.365 84.2961 197.931C84.3455 196.559 84.1108 195.163 84.4748 193.937C85.5604 193.068 86.5813 193.357 87.5993 193.586C88.74 193.937 89.8341 194.447 91.0194 194.664C94.2751 195.641 97.5774 195.273 100.856 194.892C102.101 194.748 103.323 194.419 104.593 194.526C104.783 194.543 104.972 194.559 105.162 194.576Z" fill="#027292"/>
<path d="M280.721 12.0665C284.617 11.9818 288.539 11.6962 292.208 13.4714C294.966 15.0953 296.044 18.0157 297.652 20.5315C298.424 22.1211 298.938 23.804 299.45 25.4907C300.594 28.1398 301.588 30.8231 301.521 33.7777C301.517 35.6424 301.495 37.5033 301.512 39.3633C301.535 41.9076 300.453 43.3202 297.793 43.2973C297.098 43.2907 296.398 43.3107 295.705 43.3859C292.685 43.7114 290.811 42.4343 290.084 39.5546C288.584 35.1522 288.43 30.3824 286.46 26.1037C284.553 22.4314 283.377 18.3955 280.893 15.0059C280.237 14.1111 280.165 13.0831 280.721 12.0674V12.0665Z" fill="#011A4D"/>
<path d="M353.335 47.951C356.17 50.4925 357.999 53.7155 359.533 57.1375C358.524 61.5713 357.179 62.3328 353.276 59.9302C346.195 55.5716 338.902 51.7508 330.924 49.3121C329.58 48.9019 328.266 48.4297 326.864 48.2822C326.192 47.812 325.18 47.7634 324.949 46.7421C325.462 45.3695 325.793 43.9579 325.817 42.4815C325.855 42.155 325.924 41.8352 326.005 41.5182C327.327 34.5458 328.014 34.0327 334.107 37.8925C339.928 41.5801 346.544 44.0074 351.632 48.8676C352.009 49.2284 352.155 48.6896 352.289 48.3869C352.536 47.9786 352.82 47.6768 353.335 47.951Z" fill="#01164D"/>
<path d="M88.0502 194.674C87.0198 194.641 86.094 193.913 84.7384 194.268C84.689 199.77 84.9827 205.337 84.5692 210.883C84.4846 212.014 84.8259 213.231 83.9961 214.239C83.7318 207.605 84.3107 200.958 83.8307 194.175C76.8402 190.808 70.8887 186.353 67.7139 178.997C74.7604 178.992 81.8069 178.988 88.8534 178.983C88.8449 180.645 90.4466 181.81 90.2394 183.545C90.0645 185.01 88.612 186.107 88.9789 187.706C89.9437 189.26 92.4646 188.75 92.9038 190.997C92.7907 192.517 90.573 192.29 90.2603 193.773C89.727 194.572 88.805 194.418 88.0512 194.674H88.0502Z" fill="#8FD0D2"/>
<path d="M245.7 246.487C243.664 246.728 242.258 248.228 240.523 249.071C239.415 249.609 238.575 250.695 237.211 250.711C230.941 249.089 224.579 247.738 218.883 244.435C225.771 240.409 232.944 236.921 240.008 233.228C241.308 236.724 242.642 240.208 243.89 243.722C244.279 244.817 244.841 245.733 245.699 246.487H245.7Z" fill="#98CDCF"/>
<path d="M152.141 298.43C152.306 291.789 151.866 285.2 150.361 277.783C146.539 283.158 146.104 289.637 141.879 293.79C139.024 293.582 137.391 291.669 135.721 290.216C132.288 287.229 129.217 283.825 125.996 280.593C125.553 280.148 125.433 279.588 125.43 278.987C126.037 278.71 126.607 278.902 127.028 279.303C131.032 283.122 135.167 286.815 138.707 291.096C139.239 292.143 140.215 292.502 141.744 292.878C145.303 287.432 146.723 280.825 150.149 274.627C152.872 282.277 152.941 289.94 153.709 297.678C156.275 298.433 158.895 298.103 161.895 297.873C161.839 292.386 162.648 287.149 165.472 282.435C166.803 284.01 165.841 285.58 165.36 287.075C164.371 290.15 164.082 293.214 164.748 296.365C166.836 297.433 168.771 296.991 170.64 296.801C172.239 294.844 172.386 292.798 171.711 290.698C171.064 288.686 170.651 286.612 169.968 284.611C169.549 283.382 169.344 282.074 170.483 281.017C172.074 283.934 173.058 287.08 173.971 290.253C174.763 293.526 176.876 292.986 178.939 291.979C181.482 292.657 181.744 295.213 183.426 296.672C186.058 297.39 188.867 296.97 191.664 296.949C202.028 296.833 212.385 296.905 222.742 296.903C224.365 296.903 226.026 296.825 227.406 297.952C241.708 297.986 256.009 298.022 270.312 298.056C270.312 298.202 270.314 298.35 270.314 298.497C268.799 298.558 267.285 298.675 265.771 298.675C232.327 298.667 198.883 298.656 165.439 298.616C161.006 298.61 156.564 299.106 152.141 298.432L152.141 298.43Z" fill="#0A809B"/>
<path d="M180.971 14.1482C182.514 13.0393 184.118 12.0427 185.911 11.3831C186.116 11.601 186.233 11.8599 186.268 12.1531C188.931 13.9836 192.075 14.7165 194.981 15.9863C195.715 16.3071 196.6 16.2804 197.166 16.9791L197.199 17.0058C197.257 18.6848 195.7 18.8676 194.756 19.5568C191.126 22.2049 187.911 25.2908 184.916 28.629C183.682 29.1545 182.491 28.4977 181.273 28.512C179.59 28.3739 177.962 27.9418 176.316 27.602C172.943 26.6158 169.38 27.7314 166.021 26.6701C164.531 25.0985 166.009 24.8092 166.987 24.9196C169.036 25.1499 171.11 24.9729 172.877 25.1062C171.373 24.8339 169.468 25.3813 167.314 24.6864C170.8 19.492 177.522 18.8819 180.972 14.1482H180.971Z" fill="#022256"/>
<path d="M234.427 12.0352C235.043 11.0291 235.238 9.70503 236.548 9.22529C236.706 9.19864 236.864 9.17198 237.021 9.14248C239.371 9.20339 241.608 8.6732 243.603 7.82318C242.356 7.9098 240.916 8.11826 239.502 7.65565C236.983 6.46011 234.885 4.81813 233.735 2.17669C232.597 0.830747 231.072 1.91969 230.173 1.47612C228.722 1.71979 228.681 3.04765 227.458 3.42554C225.339 1.72646 222.65 2.16432 219.917 2.25094C218.845 2.43274 218.748 3.92813 217.07 4.29365C214.472 2.68499 210.932 4.38027 207.743 3.04194C210.29 2.35088 212.955 2.3071 215.429 1.0611C216.731 0.405262 218.547 0.775539 220.132 0.682256C227.508 0.292941 234.885 0.221551 242.259 0.727946C243.364 1.55512 244.657 1.4666 245.921 1.44946C251.788 1.36951 257.059 3.4522 262.219 5.93658C262.374 6.01082 262.414 6.32399 262.661 6.85704C258.399 7.34249 254.359 8.50663 250.139 8.60467C247.42 9.09964 244.625 9.31381 242.154 10.7407L241.991 10.8225L241.838 10.7235C239.27 10.6017 237.11 12.7967 234.428 12.0333L234.427 12.0352Z" fill="#03124E"/>
<path d="M75.3747 98.7125C71.8481 94.9317 68.9803 90.8444 69.1733 85.334C74.0078 87.6099 78.831 89.9134 83.9003 91.6382C83.1351 91.7686 82.2825 91.3536 81.4298 92.1437C85.0505 93.6981 88.8214 94.0902 92.9421 94.7251C91.7463 95.1763 90.9269 95.6037 90.0552 95.7941C85.9754 96.6879 84.9079 97.833 84.6589 102.025C84.5752 103.431 84.6902 104.838 83.5724 106.111C80.5144 104.031 78.5772 100.647 75.3747 98.7116V98.7125Z" fill="#047893"/>
<path d="M212.014 29.1021C212.287 29.6494 212.703 30.032 213.289 30.2243C221.469 32.9057 228.262 37.7308 234.237 43.8189C234.351 46.1938 233.973 46.5812 230.922 47.2152C227.217 44.6004 224.026 41.3231 220.137 38.9349C216.855 36.9198 213.5 35.0855 209.866 33.7853C208.307 33.2275 206.738 32.9048 205.084 33.2065C205.238 32.7153 205.586 32.4069 206.084 32.465C208.89 32.7925 210.315 30.7117 212.014 29.1021Z" fill="#8CCFDE"/>
<path d="M138.706 291.095C135.157 289.008 132.668 285.742 129.709 282.999C128.274 281.669 127.163 279.993 125.428 278.986C123.896 276.354 120.815 275.03 119.631 272.103C120.385 269.713 121.138 267.323 122.042 264.453C124.134 266.991 125.874 269.102 127.614 271.213C127.864 273.648 130.931 274.371 131.049 276.887C131.467 280.572 134.063 282.669 136.757 284.668C139.456 286.671 139.889 288.012 138.705 291.095H138.706Z" fill="#021D52"/>
<path d="M298.423 14.252C304.865 15.3066 310.901 17.5178 316.611 20.658C317.927 21.4871 318.36 22.7969 318.561 24.2352C318.533 25.5659 317.672 25.4716 316.658 25.5487C312.644 25.8571 308.801 23.4594 304.687 24.9243C303.674 25.2851 302.886 24.0857 302.156 23.348C300.551 21.528 299.836 19.1788 298.504 17.1932C297.987 16.2271 297.558 15.2552 298.424 14.252H298.423Z" fill="#061D4E"/>
<path d="M209.173 95.14C210.568 92.4262 212.859 90.473 214.923 88.3227C216.26 86.9292 217.542 85.4814 218.848 84.0583C218.403 85.4471 219.48 86.1525 220.178 87.0263C222.185 89.5373 224.002 92.1588 225.205 95.338C223.794 96.2347 222.403 95.6797 221.106 95.8073C218.408 94.6812 215.629 95.0401 212.884 95.4779C211.578 95.6864 210.352 95.9272 209.173 95.14Z" fill="#0D7B97"/>
<path d="M144.39 52.7989C144.364 53.0302 144.411 53.4176 144.3 53.4709C141.227 54.9473 140.179 57.8438 138.945 60.7175C138.048 62.803 136.674 64.682 135.543 66.6019C136.32 67.945 137.236 67.6481 138.323 67.2578C142.038 65.9261 145.85 64.9314 149.715 64.129C155.395 62.9506 161.142 62.348 166.927 62.0539C167.478 61.6046 168.007 61.6522 168.519 62.1205C167.921 62.8106 167.322 63.5008 167.024 63.8444C154.519 63.7387 143.02 66.3021 131.673 71.9105C132.751 68.1773 134.587 65.3864 136.102 62.4642C137.389 59.9826 138.883 57.6096 140.27 55.1805C140.738 54.36 141.174 53.5261 142.265 53.4281C142.861 52.836 143.419 52.1173 144.391 52.7989H144.39Z" fill="#0B1547"/>
<path d="M234.428 12.0353C236.89 11.5565 239.186 10.1315 241.837 10.7255C238.383 12.4684 234.54 13.0033 230.928 14.2512C218.775 18.447 207.971 25.1016 197.605 32.5728C192.755 36.069 188.581 40.3572 183.899 44.0447C184.575 41.7821 186.742 40.7846 188.097 39.0969C188.961 38.0213 190.223 37.2922 190.836 35.9891C191.036 34.8916 191.909 34.3547 192.689 33.7369C198.484 28.9823 204.796 25.0045 211.314 21.3388C211.722 21.1094 212.163 20.9552 212.633 21.1922C217.907 18.112 223.483 15.6676 229.106 13.3222C230.816 12.6092 232.515 11.8896 234.428 12.0333V12.0353Z" fill="#0F1745"/>
<path d="M274.63 12.5064C274.349 13.0728 273.899 13.4707 273.267 13.4107C269.29 13.0299 265.41 14.0465 261.469 14.2293C258.543 14.3654 255.534 14.432 252.731 15.5733L252.729 15.5752C249.989 15.2859 247.438 16.2482 244.94 17.0459C240.019 18.6174 234.881 19.556 230.215 21.9004C229.996 22.1374 229.769 22.1584 229.533 21.9261C228.094 22.1964 226.68 22.5296 225.482 23.4482C224.685 24.0583 223.89 24.361 223.171 23.3292C227.628 20.5288 232.729 19.3408 237.609 17.6218C246.279 14.5682 255.258 12.8101 264.392 12.0666C267.767 11.7916 271.271 11.2461 274.632 12.5055L274.63 12.5064Z" fill="#0A1232"/>
<path d="M325.155 46.568C325.627 47.0334 326.097 47.4999 326.569 47.9653C326.815 48.1224 326.897 48.2785 326.815 48.4355C326.733 48.5917 326.652 48.6707 326.569 48.6707C315.141 45.6009 303.617 44.1826 291.748 45.6542C285.992 46.3681 280.38 47.6065 274.736 48.7887C274.409 48.7087 274.082 48.6288 273.427 48.4679C274.847 47.1324 276.49 46.9468 278.02 46.5727C281.066 45.8255 284.131 45.1516 287.188 44.4482C288.332 43.3488 289.764 43.2479 291.234 43.2755C294.134 43.5525 297.044 43.205 299.892 42.9299C307.181 42.2255 314.236 43.2907 321.275 44.8927C322.635 45.2953 324.115 45.4238 325.155 46.5689V46.568Z" fill="#0C133C"/>
<path d="M353.334 47.9509C353.083 48.1918 352.832 48.4326 352.581 48.6743C349.718 48.2793 348.778 45.5218 346.914 43.9226C340.736 38.6217 334.8 33.0294 327.355 29.4675C325.805 28.726 324.626 27.6989 324.024 26.0636C323.715 25.4735 323.421 24.8757 323.385 24.1923C323.497 23.7144 323.582 23.1985 324.291 23.445C333.918 29.5246 343.334 35.8727 350.824 44.6346C351.724 45.6874 352.752 46.6535 353.333 47.9519L353.334 47.9509Z" fill="#0A1C54"/>
<path d="M280.721 12.0664C280.792 12.5214 280.713 13.0906 280.958 13.4143C283.726 17.0666 285.125 21.4138 287.133 25.4497C287.915 26.6405 287.111 27.1916 286.178 27.462C284.621 27.9131 283.188 27.7361 282.345 26.0741L282.285 26.117C281.488 22.1562 279.068 19.017 277.02 15.6902C276.421 14.7174 275.539 13.9102 275.299 12.728C277.112 12.5528 279.002 13.0135 280.721 12.0664Z" fill="#6DC1C9"/>
<path d="M65.751 157.01C67.1388 157.849 68.4886 158.737 69.6749 160.195V171.372C68.482 172.368 67.0676 171.537 65.8613 172.141C65.1008 172.903 65.8717 173.892 65.5799 174.742C64.7206 173.97 64.5248 172.926 64.6693 171.891C65.3565 166.953 64.3556 161.893 65.752 157.01H65.751Z" fill="#A2CED1"/>
<path d="M144.39 52.7988C143.54 52.5285 143.05 53.4804 142.264 53.428C142.216 51.9079 142.988 50.6781 143.673 49.4159C144.517 49.1732 145.159 48.5183 146.002 48.2632C154.148 45.3038 160.637 44.7784 164.287 46.8021C164.755 48.8333 163.162 49.3264 161.839 50.0194C155.807 49.592 150.006 50.6114 144.389 52.7979L144.39 52.7988Z" fill="#6EB6D0"/>
<path d="M326.568 48.6705C326.568 48.4354 326.568 48.2003 326.568 47.9662C329.59 47.6092 332.355 48.8447 334.988 49.8632C338.722 51.3072 342.403 52.9597 346.001 54.831C349.546 56.6758 352.554 59.5266 356.705 60.5622C358.549 60.3462 358.61 58.3625 359.532 57.1365C360.35 58.8698 359.947 60.3785 358.476 61.4799C357.015 62.5735 355.416 62.3223 353.896 61.4713C350.245 59.4257 346.896 56.8842 343.093 55.0719C337.738 52.5209 332.261 50.3268 326.568 48.6705Z" fill="#0C1432"/>
<path d="M180.971 14.1484C181.289 14.2284 181.608 14.3083 182.157 14.4454C178.232 19.0106 172.402 20.5373 167.721 24.6561H174.757C174.755 24.9093 174.753 25.1634 174.75 25.4166C172.743 25.4166 170.733 25.3586 168.729 25.4395C167.638 25.4842 166.368 24.9445 165.518 26.1534C164.787 27.2642 164.063 27.8553 163.364 26.1286C168.38 21.4435 174.057 17.677 179.941 14.2036C180.203 14.0485 180.623 14.1608 180.969 14.1484H180.971Z" fill="#0D1845"/>
<path d="M131.052 276.887C130.223 275.342 128.741 274.388 127.627 273.101C127.076 272.465 126.474 271.85 127.615 271.214C131.293 274.891 134.97 278.568 138.537 282.136C139.965 281.745 140.185 280.718 140.411 279.903C141.345 276.532 142.754 273.342 143.99 270.088C144.459 268.85 144.773 267.655 144.324 266.361C145.004 266.381 145.735 266.178 146.564 267.127C144.62 272.302 142.614 277.676 140.566 283.034C140.354 283.588 139.776 283.864 138.849 283.884C135.88 282.208 134.071 278.847 131.052 276.888V276.887Z" fill="#0E153A"/>
<path d="M168.518 62.1207C167.988 62.0988 167.457 62.0759 166.927 62.054C168.691 56.0125 172.445 51.5378 177.35 47.9683C178.879 49.2152 176.257 49.8682 177.543 50.821C174.734 54.7465 171.698 58.4902 168.519 62.1207H168.518Z" fill="#07235A"/>
<path d="M163.366 26.1284C164.073 27.0727 164.797 26.4911 165.52 26.1532C169.297 25.9095 173.084 25.5116 176.765 26.8452C177.2 28.1093 176.506 29.0164 175.879 29.8712C174.854 30.4927 173.837 30.4385 172.805 30.2852C172.472 30.2348 172.147 30.1539 171.825 30.0596C169.142 29.835 166.46 29.5056 163.815 30.3385C162.655 30.8402 161.494 31.3485 160.228 30.666C160.115 30.526 160.002 30.3842 159.889 30.2424C160.982 28.8146 161.72 27.0869 163.366 26.1275V26.1284Z" fill="#88BECC"/>
<path d="M145.154 49.2446C144.699 49.6339 144.227 49.8738 143.674 49.416C147.359 43.0746 152.044 37.51 157.03 32.1786C157.842 31.3114 158.827 30.726 159.889 30.2434C159.723 30.3824 159.7 30.5423 159.818 30.7222C160.479 31.2981 160.447 32.0396 159.951 32.5812C155.079 37.8993 150.443 43.423 145.76 48.9058C145.615 49.0761 145.369 49.1523 145.154 49.2446Z" fill="#121D45"/>
<path d="M185.898 12.0075C185.909 11.8 185.913 11.5915 185.911 11.3831C192.608 7.89733 199.432 4.73998 206.93 3.35596C206.956 3.66436 206.982 3.97277 207.009 4.28117C206.802 4.59815 206.579 4.61052 206.338 4.3183C203.591 4.51153 201.648 6.58375 199.12 7.46708C195.391 8.76924 191.308 9.51075 188.022 11.9989C187.317 12.65 186.609 12.6405 185.899 12.0075H185.898Z" fill="#111840"/>
<path d="M115.1 287.47C115.551 291.28 115.504 295.022 113.629 298.521C112.836 298.67 112.047 298.784 111.122 298.151C112.26 294.526 113.533 290.946 115.1 287.47Z" fill="#124872"/>
<path d="M298.424 14.252C298.173 15.2733 298.883 16.0158 299.183 16.8782C299.386 18.7648 298.615 20.0298 296.797 20.6286C295.268 18.2432 293.738 15.8578 292.21 13.4724C294.22 14.2196 296.334 14.1492 298.425 14.2529L298.424 14.252Z" fill="#76BAD3"/>
<path d="M133.079 230.337C134.586 233.975 134.061 237.681 133.295 241.342C133.063 242.451 133.979 244.416 131.614 244.44C131.319 240.395 132.556 236.449 132.378 232.412C132.602 231.716 132.184 230.804 133.079 230.336V230.337Z" fill="#091131"/>
<path d="M67.1387 177.48C76.9456 177.47 86.7516 177.461 96.5586 177.452C95.7972 178.824 94.4835 178.246 93.4141 178.252C84.6699 178.296 75.9257 178.275 67.1814 178.273C67.1672 178.008 67.1539 177.744 67.1396 177.48H67.1387Z" fill="#8FD0D2"/>
<path d="M270.314 298.495C270.306 298.349 270.305 298.201 270.312 298.055C272.636 297.524 274.464 296.201 276.032 294.461C277.04 295.545 277.839 296.754 278.509 298.496H270.314V298.495Z" fill="#098DA3"/>
<path d="M242.258 0.729785C234.883 0.714555 227.506 0.699325 220.131 0.684095C222.583 -0.442918 225.196 0.163423 227.706 0.158663C232.556 0.149145 237.446 -0.35725 242.258 0.729785Z" fill="#011855"/>
<path d="M324.292 23.4433C324.05 23.6394 323.809 23.8346 323.568 24.0307C322.131 25.5327 320.485 23.6375 319 24.3191C318.693 24.3857 318.396 24.3467 318.112 24.2106C317.611 23.0264 317.111 21.8414 316.61 20.6572C319.339 21.1189 321.791 22.3506 324.292 23.4433Z" fill="#71ADC3"/>
<path d="M124.694 226.84C124.859 225.558 125.553 224.585 126.579 223.234C127.205 225.708 126.283 227.366 125.529 229.055C125.211 228.331 125.726 227.293 124.694 226.84Z" fill="#94D3DF"/>
<path d="M242.154 10.7433C244.446 8.64542 247.272 8.54548 250.14 8.60735C247.605 9.79433 244.877 10.2569 242.154 10.7433Z" fill="#0F1745"/>
<path d="M164.22 67.8785C163.933 67.8156 163.645 67.7519 163.358 67.689C163.624 66.286 164.345 65.3094 166.008 64.803C166.241 66.5259 165.15 67.157 164.22 67.8785Z" fill="#718997"/>
<path d="M171.36 117.338C171.331 122.832 167.48 126.842 162.226 126.85C156.789 126.857 152.572 122.495 152.594 116.884C152.613 111.95 157.148 107.429 162.084 107.424C167.25 107.418 171.389 111.843 171.361 117.338H171.36Z" fill="#01154C"/>
<path d="M250.583 130.992C249.801 132.324 248.497 131.763 247.426 131.77C239.013 131.819 230.562 132.329 222.21 129.745C223.554 131.564 222.918 133.714 223.844 135.43C220.205 133.56 218.273 130.096 215.984 126.97C215.974 126.957 216.137 126.818 216.219 126.738C227.313 131.083 238.851 131.82 250.583 130.993V130.992Z" fill="#032453"/>
<path d="M207.719 68.5924C207.024 70.8722 205.859 70.4829 204.857 69.7556C197.367 64.3205 188.751 61.6847 179.813 59.6534C179.82 58.0419 181.108 57.4994 181.958 56.637C191.101 59.6154 200.079 62.7956 207.719 68.5934V68.5924Z" fill="#042F5F"/>
<path d="M219.594 55.9667C219.111 56.5179 218.835 56.8948 218.494 57.2004C218.246 57.4231 217.914 57.5506 217.292 57.9085C210.655 51.3721 202.36 47.6531 193.334 44.8736C193.827 43.661 194.738 42.9223 195.727 42.3931C204.617 45.42 212.589 49.7196 219.594 55.9667Z" fill="#04305E"/>
<path d="M252.729 15.5732H257.193C261.032 19.6939 264.815 24.0068 267.503 29.1688C267.06 30.5947 265.976 30.8508 264.663 31.0297C261.66 26.8053 258.285 22.8722 254.605 19.2046C253.594 18.1966 252.844 17.0486 252.728 15.5751L252.729 15.5732Z" fill="#02326D"/>
<path d="M229.532 21.9269C229.759 21.9155 229.986 21.9069 230.213 21.9012C232.378 21.8346 234.321 22.4038 236.063 23.745C240.577 27.2222 245.189 30.5823 249.061 34.8143C249.37 35.1522 249.729 35.4739 249.622 36.244C248.106 37.1968 246.852 36.6742 245.489 35.4853C240.767 31.3685 236.278 26.9423 230.703 23.9173C229.915 23.4899 229.492 22.8436 229.531 21.9269H229.532Z" fill="#043266"/>
<path d="M230.922 47.2151C231.996 46.0529 233.959 45.7607 234.236 43.8188C237.319 46.6183 238.586 50.6171 240.875 53.9448C242.057 55.663 242.939 57.5886 243.945 59.401C243.511 60.1082 242.881 60.3328 242.196 60.4661C237.974 56.4302 234.81 51.5138 230.922 47.2151Z" fill="#043562"/>
<path d="M202.086 240.193C191.739 245.427 181.392 250.659 171.049 255.902C170.326 256.269 169.643 256.718 168.941 257.128C168.512 257.164 168.083 257.199 167.653 257.234C165.884 257.361 164.392 258.347 162.766 258.628C160.864 262.05 162.133 265.94 160.596 269.34C157.4 270.107 156.911 267.871 156.402 265.683C156.074 264.271 157.003 262.64 155.658 261.404C150.208 257.378 144.49 253.747 138.82 250.046C137.768 249.359 136.523 248.875 135.633 247.304C144.673 240.526 152.583 232.492 159.877 223.834C161.902 219.537 165.52 216.463 168.391 212.822C170.996 209.518 173.919 206.463 176.439 203.078C176.852 202.523 177.302 201.937 178.151 202.128C180.495 200.284 183.408 199.733 186.095 198.699C191.463 196.634 196.151 193.482 200.667 190.014C201.01 189.994 201.352 189.974 202.084 189.93V240.194L202.086 240.193Z" fill="#92D1D2"/>
<path d="M227.407 297.951C215.219 297.949 203.032 297.948 190.844 297.946C189.404 296.866 188.575 295.292 188.117 293.68C187.43 291.266 185.906 289.832 183.765 288.845C183.77 288.611 183.751 288.381 183.709 288.152C188.412 284.9 193.537 282.391 198.562 279.706C201.204 279.71 203.92 279.313 206.143 281.347C206.672 281.83 207.507 282.036 208.123 281.784C210.887 280.652 213.56 281.905 216.251 281.937C221.713 286.079 226.168 290.894 227.408 297.953L227.407 297.951Z" fill="#005583"/>
<path d="M178.153 202.127C172.436 209.679 166.288 216.867 159.879 223.834C159.811 223.064 159.481 222.683 158.852 223.37C157.053 225.333 155.02 227.047 153.379 229.2C151.696 231.407 149.692 233.433 147.275 235.216C146.497 233.44 147.702 232.284 147.767 230.967C147.061 228.223 144.239 228.304 142.456 227.042C143.582 221.025 143.798 217.305 143.104 215.881C142.265 215.81 142.244 216.944 141.485 216.99C143.189 211.951 145.072 206.968 145.822 201.502C149.751 201.782 152.964 203.264 156.374 203.854C161.81 204.794 167.023 204.181 172.269 202.919C174.196 202.456 176.018 201.085 178.152 202.126L178.153 202.127Z" fill="#00174C"/>
<path d="M124.806 203.637C123.564 203.505 122.221 203.998 120.972 202.966C120.228 201.78 120.431 200.448 120.76 199.129C122.155 198.346 123.664 199.011 124.957 198.365C125.79 199.299 125.274 200.402 125.417 201.402C124.659 201.994 124.905 202.863 124.805 203.637H124.806Z" fill="#93D2D5"/>
<path d="M88.0508 194.674C88.4776 193.611 89.4139 193.803 90.2599 193.773C94.007 194.664 97.7389 195.238 101.622 193.212C102.451 194.194 104.227 193.165 105.162 194.576L105.092 194.538C100.396 195.707 95.6505 195.875 90.8654 195.222C89.893 195.216 88.8588 195.527 88.0508 194.675V194.674Z" fill="#93D2D5"/>
<path d="M170.482 281.018C169.64 283.831 171.253 286.508 172.189 288.599C173.696 291.964 172.634 294.644 172.266 297.858C169.409 298.119 166.661 298.123 163.61 297.822C163.414 294.4 162.978 291.105 164.082 287.794C164.664 286.049 165.652 284.386 165.471 282.435C165.843 279.995 166.916 277.772 167.617 275.434C168.269 275.271 168.92 274.909 169.248 275.965C169.764 277.627 170.603 279.201 170.481 281.018H170.482Z" fill="#0286A2"/>
<path d="M155.66 261.404C155.749 261.09 155.838 260.775 156.049 260.03C158.458 262.76 155.058 267.839 160.154 269.158C161.155 265.383 161.383 261.71 161.362 257.962C163.554 257.103 165.532 256.623 167.655 257.234C167.473 257.752 166.979 257.766 166.568 257.956C162.951 259.627 161.787 262.348 161.833 266.408C161.881 270.6 160.6 274.774 158.71 278.75C157.445 275.253 156.355 271.772 156.288 268.046C155.542 265.881 156.595 263.545 155.659 261.397L155.661 261.404H155.66Z" fill="#97CED8"/>
<path d="M155.658 261.397C157.093 263.497 156.092 265.828 156.287 268.046C155.46 265.888 155.723 263.628 155.658 261.397Z" fill="#92D1D2"/>
<path d="M141.349 227.358C141.828 228.266 141.447 228.865 140.678 229.345C140.065 228.538 140.288 227.875 141.349 227.358Z" fill="#00174C"/>
<path d="M218.883 244.435C224.11 245.977 229.389 247.351 234.49 249.303C235.459 249.674 236.525 249.809 237.211 250.712C231.01 254.67 224.444 257.977 217.995 261.494C206.303 267.874 194.523 274.1 183.204 281.142C181.926 281.937 180.739 282.878 179.51 283.751C178.893 283.588 178.514 283.178 178.303 282.591C176.56 277.749 174.817 272.907 172.912 267.619C188.236 259.761 203.31 251.614 218.883 244.435Z" fill="#FDFDFD"/>
<path d="M183.765 288.844C184.984 289.007 186.309 288.507 187.644 289.6C187.892 292.535 190.099 294.944 190.844 297.946H182.027C181.728 295.85 180.811 294.179 179.32 292.603C177.903 292.532 176.336 293.701 174.809 292.738C173.894 292.16 173.913 291.196 173.971 290.253C174.85 290.767 174.877 292.164 176.483 292.344C178.992 291.894 181.085 289.718 183.765 288.844Z" fill="#016389"/>
<path d="M145.154 49.2445C149.206 42.8622 154.321 37.3823 159.627 32.0585C159.881 31.8034 159.763 31.1761 159.819 30.7221C161.013 30.3661 162.207 30.0101 163.402 29.6541C166.447 29.1306 169.489 29.0373 172.525 29.7217L172.492 29.7017C173.876 30.5498 175.548 29.4523 176.927 30.3566C177.296 30.7573 177.492 31.2247 177.47 31.7758C177.996 34.1688 176.892 36.0716 175.393 37.6707C171.981 41.3097 167.988 44.3947 165.184 48.6163C164.427 49.7566 163.281 50.3382 161.838 50.0213C162.564 49.037 163.799 48.3993 164.136 46.7554C157.393 45.6103 151.311 47.7529 145.151 49.2455L145.154 49.2445Z" fill="#011F55"/>
<path d="M177.471 31.775C177.088 31.6285 176.861 31.3562 176.805 30.9469C178.455 29.9551 180.763 29.9018 181.518 27.6335C182.816 27.4183 183.892 28.5453 185.204 28.2493C188.882 29.007 191.832 30.6537 192.921 34.5783C192.226 35.0495 191.531 35.5197 190.835 35.9909C186.644 33.7492 182.354 31.8179 177.471 31.776V31.775Z" fill="#032D5F"/>
<path d="M192.921 34.5773C191.047 31.6141 188.019 30.0616 185.204 28.2483C184.759 27.4592 184.697 26.7625 185.544 26.1523C189.554 23.2634 192.746 19.3312 197.199 17.0058C198.408 16.7774 198.947 18.0976 200.083 18.2528C200.976 17.8634 201.926 17.4503 203.014 16.9753C204.624 18.9305 205.29 21.67 207.909 22.5466C209.778 23.0254 210.328 19.0752 212.633 21.1931C205.934 25.4632 199.092 29.5238 192.921 34.5764V34.5773Z" fill="#011851"/>
<path d="M206.338 4.31824C206.561 4.31158 206.785 4.2992 207.008 4.28112C212.46 3.6091 216.407 6.52467 220.312 9.50783C219.902 11.1241 218.935 11.7914 217.918 11.0651C214.326 8.50171 210.121 7.07485 206.479 4.63616C206.398 4.58191 206.384 4.42675 206.338 4.31919V4.31824Z" fill="#053B6C"/>
<path d="M185.898 12.0076C186.606 12.0047 187.314 12.0019 188.021 11.999C191.78 12.1342 195.073 13.6715 198.281 15.3258C198.489 16.3605 197.329 16.3072 197.165 16.9802C195.641 17.1306 194.164 17.0325 192.809 16.2072C190.415 14.7471 187.749 14.016 185.057 13.3773C184.96 12.6606 185.857 12.6035 185.899 12.0085L185.898 12.0076Z" fill="#0D688A"/>
<path d="M233.735 2.17755C235.612 3.82238 237.49 5.46722 239.368 7.11205C240.009 7.56418 240.75 7.93065 240.896 9.03292C239.512 9.85819 238.049 9.76491 236.548 9.22615H236.549C235.259 6.38672 231.645 5.73659 230.287 2.82673C231.425 1.78538 232.646 2.34603 233.736 2.17851L233.735 2.17755Z" fill="#063067"/>
<path d="M282.345 26.0741C284.068 26.8432 285.82 27.8399 287.133 25.4497C288.821 28.4586 289.223 31.8596 289.913 35.1464C290.169 36.3648 290.587 37.5622 290.704 38.814C291.22 40.4569 291.246 42.0998 290.709 43.7437C289.73 44.9602 288.357 44.1939 287.187 44.4481C286.441 44.3653 285.793 44.1216 285.815 43.2259C285.922 38.7845 284.431 34.6143 283.7 30.3157C283.443 28.806 282.158 27.6847 282.345 26.0751V26.0741Z" fill="#04496F"/>
<path d="M90.8652 195.221C95.6114 195.064 100.383 195.459 105.092 194.537C100.43 196.44 95.6599 196.087 90.8652 195.221Z" fill="#8FD0D2"/>
<path d="M290.71 43.7439C290.708 42.1009 290.706 40.458 290.705 38.8141C292.128 39.7946 290.829 41.5498 291.981 42.8796C294.549 42.9043 297.215 41.8544 300.107 42.4303C300.954 39.1777 300.358 36.1441 300.552 33.1638C302.424 33.4123 301.97 34.9829 302.164 36.1213C302.431 37.6871 301.937 39.3938 303.462 41.4146C304.054 37.4825 303.666 34.0672 303.803 30.689C303.872 29.5382 303.919 28.3778 305.002 27.3669C308.722 28.8423 312.962 28.6272 316.431 30.9831C317.714 31.8541 319.116 31.4124 320.481 31.4638C321.305 31.7865 321.596 32.4937 321.8 33.2704C322.285 35.85 322.812 38.4239 322.653 41.0748C322.456 42.6939 323.023 44.4749 321.656 45.8475C311.456 43.445 301.082 43.5916 290.709 43.7439H290.71Z" fill="#01194E"/>
<path d="M304.759 30.3691V42.2999C303.837 43.1223 303.176 43.0709 302.464 42.7977C301.373 41.1967 301.264 39.3786 301.203 37.4882C301.157 36.0451 301.855 34.4327 300.551 33.1648C300.783 30.3177 299.242 27.9352 298.511 25.3404C300.315 24.7645 302.135 27.1652 303.94 25.3138C305.636 26.772 303.54 28.8376 304.759 30.3701V30.3691Z" fill="#034470"/>
<path d="M303.399 25.4414C303.281 25.9716 303.528 26.576 302.969 27.1548C301.395 26.9054 299.832 26.4485 298.512 25.3396C297.94 23.769 297.369 22.1984 296.797 20.6278C297.592 19.378 298.387 18.1282 299.183 16.8774C300.804 18.5061 301.171 20.861 302.515 22.6505C303.043 23.5063 303.581 24.3591 303.399 25.4414Z" fill="#56B5CD"/>
<path d="M324.393 25.4355C325.874 28.6043 329.126 29.5124 331.834 30.9602C333.546 31.8759 335.466 32.2348 336.502 34.168C336.859 34.8343 337.613 35.3388 338.276 35.7805C343.678 39.3785 348.345 43.7857 352.582 48.6745C352.942 49.2589 353.301 49.8424 353.66 50.4269C353.529 50.6249 353.398 50.8219 353.268 51.0199C345.704 44.9175 337.054 40.7188 329.001 36.0565C327.469 36.501 327.348 37.3834 327.255 38.3686C327.15 39.4737 327.763 40.7521 326.574 41.6345C324.759 39.4223 326.071 36.6391 325.218 34.2527C324.659 32.2271 323.391 30.3957 323.526 28.1741C323.577 27.186 323.603 26.1875 324.394 25.4365L324.393 25.4355Z" fill="#02245A"/>
<path d="M325.928 33.8823C327.317 36.3676 326.203 39.0624 326.574 41.6334C326.567 41.8656 326.562 42.0979 326.56 42.3301C326.058 43.1335 326.02 44.3719 324.572 44.2482C322.505 44.0711 322.321 42.2949 321.644 40.9261C322.094 38.2695 320.874 35.7556 320.976 33.1284C322.748 32.583 324.265 33.7138 325.927 33.8832L325.928 33.8823Z" fill="#03416C"/>
<path d="M321.645 40.9253C322.778 41.7506 323.033 43.5734 324.788 43.6876C325.774 43.7562 325.826 42.5977 326.561 42.3293C326.001 43.7124 327.86 45.8998 325.155 46.568C323.929 46.6203 322.728 46.5489 321.657 45.8474C321.653 44.2064 321.648 42.5663 321.645 40.9253Z" fill="#042B5D"/>
<path d="M181.518 27.6334C181.737 27.8942 181.957 28.155 182.273 28.531C180.987 30.5823 179.202 31.4199 176.805 30.9468C175.566 29.8417 173.706 30.8954 172.493 29.7018H175.523C175.471 28.5481 176.274 27.7847 176.764 26.8452C178.349 27.1079 179.933 27.3706 181.518 27.6324V27.6334Z" fill="#79B0C3"/>
<path d="M236.548 9.22528H240.154C240.569 8.17632 239.456 7.85554 239.369 7.11213C241.844 7.21017 244.313 7.06453 246.833 7.00171C243.487 8.19345 240.627 11.4041 236.548 9.22528Z" fill="#011855"/>
<path d="M303.4 25.4413C302.836 24.597 302.527 23.6708 302.516 22.6504C303.471 22.796 303.351 24.0239 304.561 24.3571C307.076 23.1111 309.923 23.0863 312.806 24.4675C313.814 24.9501 317.376 24.5932 318.113 24.2105C318.322 24.162 318.528 24.1715 318.73 24.2381C319.608 24.7302 319.879 25.6193 320.204 26.4769C320.513 28.236 321.653 29.995 320.239 31.7655C319.657 32.1282 319.076 32.4908 318.412 32.9049C315.1 31.4999 312.07 29.2012 308.111 29.4287C307.132 29.4848 306.093 28.4882 305.076 27.9723C304.546 28.7433 304.862 29.5838 304.759 30.3691C303.101 29.0603 305.044 26.7539 303.4 25.4413Z" fill="#01205A"/>
<path d="M319.448 26.2848C318.785 25.7517 318.765 24.9931 318.73 24.2392C318.842 23.8118 318.953 23.3844 319.118 22.7495C320.691 23.1493 321.921 24.4724 323.569 24.0307C323.844 24.499 324.119 24.9674 324.395 25.4357C324.437 26.3742 324.478 27.3128 324.519 28.2523C322.684 27.9734 320.932 27.4765 319.449 26.2857L319.448 26.2848Z" fill="#5FB0CF"/>
<path d="M172.525 29.7226C169.484 29.6998 166.443 29.6779 163.402 29.655C166.452 28.5347 169.494 28.4062 172.525 29.7226Z" fill="#79B0C3"/>
<path d="M319.448 26.2845C319.531 25.957 319.614 25.6286 319.75 25.0908C321.075 25.3136 320.919 27.0422 321.982 27.3001C322.734 27.5685 322.91 26.7404 323.447 26.6157C323.948 27.065 323.654 28.0454 324.519 28.251C324.047 30.3642 325.956 31.8805 325.929 33.8823C323.988 35.5423 322.609 33.5082 320.978 33.1275C320.902 32.5811 320.789 32.0547 320.239 31.7653C320.506 29.8616 319.205 28.1844 319.448 26.2845Z" fill="#6DC3E1"/>
<path d="M74.586 364.174V350.552H32.86V428.598H74.586V414.609H46.8295V389.207H103.445V437.801L87.2693 453.999H20.1757L4 437.801V341.349L20.1757 325.151H87.2684L103.444 341.349V364.174H74.585H74.586Z" fill="#20254A"/>
<path d="M192.031 370.332V441.969L180.016 454H130.185L118.171 441.969V370.332L130.185 358.302H180.016L192.031 370.332ZM139.606 435.133H170.597V377.168H139.606V435.133Z" fill="#20254A"/>
<path d="M278.259 370.332V454H256.825V434.587H225.834V454H204.399V370.332L216.414 358.302H266.244L278.258 370.332H278.259ZM256.825 415.583V377.168H225.834V415.583H256.825Z" fill="#20254A"/>
<path d="M371 358.302V377.168H340.145V453.999H318.711V377.168H287.721V358.302H371H371Z" fill="#20254A"/>
<path d="M138.604 325.305V347.056H133.732V341.028L125.695 333.725V347.056H120.822V325.305H125.695V327.2L133.732 334.471V325.305H138.604Z" fill="#20254A"/>
<path d="M202.563 329.592V334.037H208.614V338.325H202.563V342.769H212.524V347.057H197.691V325.306H212.524V329.594H202.563V329.592Z" fill="#20254A"/>
<path d="M287.939 332.7L283.316 336.18L287.939 339.66V347.055H283.067V341.804L279.436 339.101L275.806 341.804V347.055H270.934V339.66L275.619 336.211L270.934 332.699V325.304H275.806V330.556L279.53 333.352L283.068 330.742V325.304H287.94V332.699L287.939 332.7Z" fill="#20254A"/>
<path d="M364.989 325.305V329.593H357.976V347.057H353.104V329.593H346.06V325.305H364.989Z" fill="#20254A"/>
</g>
<defs>
<filter id="filter0_d_2873_220" x="0" y="0" width="375" height="462" filterUnits="userSpaceOnUse" color-interpolation-filters="sRGB">
<feFlood flood-opacity="0" result="BackgroundImageFix"/>
<feColorMatrix in="SourceAlpha" type="matrix" values="0 0 0 0 0 0 0 0 0 0 0 0 0 0 0 0 0 0 127 0" result="hardAlpha"/>
<feOffset dy="4"/>
<feGaussianBlur stdDeviation="2"/>
<feComposite in2="hardAlpha" operator="out"/>
<feColorMatrix type="matrix" values="0 0 0 0 0 0 0 0 0 0 0 0 0 0 0 0 0 0 0.25 0"/>
<feBlend mode="normal" in2="BackgroundImageFix" result="effect1_dropShadow_2873_220"/>
<feBlend mode="normal" in="SourceGraphic" in2="effect1_dropShadow_2873_220" result="shape"/>
</filter>
</defs>
</svg>
